<svg height="480pt" viewBox="0 0 480 480" width="480pt" xmlns="http://www.w3.org/2000/svg"><path d="m8 311.703125v32.296875c0 17.671875 14.328125 32 32 32h400c17.671875 0 32-14.328125 32-32v-32.296875zm0 0" fill="#00479b"/><path d="m440 56h-24v208c0 8.835938-7.164062 16-16 16h-320c-8.835938 0-16-7.164062-16-16v-208h-24c-17.671875 0-32 14.328125-32 32v223.703125h464v-223.703125c0-17.671875-14.328125-32-32-32zm0 0" fill="#57a4ff"/><path d="m160 424h160l-16-48h-128zm0 0" fill="#a7a9ac"/><path d="m128 424c-17.671875 0-32 14.328125-32 32v16h288v-16c0-17.671875-14.328125-32-32-32zm0 0" fill="#414042"/><path d="m400 8h-320c-8.835938 0-16 7.164062-16 16v32h352v-32c0-8.835938-7.164062-16-16-16zm0 0" fill="#006df0"/><path d="m416 56v208c-.027344 8.824219-7.175781 15.972656-16 16h-320c-8.824219-.027344-15.972656-7.175781-16-16v-208zm0 0" fill="#bddbff"/><path d="m328 89.601562v62.398438h62.398438c-6.445313-31.40625-30.992188-55.953125-62.398438-62.398438zm0 0" fill="#ed1c24"/><path d="m312 248c41.078125-.023438 75.46875-31.132812 79.601562-72h-87.601562v-87.601562c-42.417969 4.257812-74.042969 41.03125-71.910156 83.605468 2.132812 42.578125 37.28125 76 79.910156 75.996094zm0 0" fill="#ffcd00"/><path d="m88 192h24v56h-24zm0 0" fill="#ed1c24"/><path d="m136 160h24v88h-24zm0 0" fill="#ffcd00"/><path d="m184 104h24v144h-24zm0 0" fill="#7ed63e"/><path d="m64 56c-17.671875 0-32 14.328125-32 32v223.679688h-24v-223.679688c0-17.671875 14.328125-32 32-32zm0 0" fill="#2488ff"/><path d="m64 376h-24c-17.671875 0-32-14.328125-32-32v-32.320312h24v32.320312c0 17.671875 14.328125 32 32 32zm0 0" fill="#003f8a"/><path d="m440 48h-16v-24c0-13.253906-10.746094-24-24-24h-320c-13.253906 0-24 10.746094-24 24v24h-16c-22.082031.027344-39.9726562 17.917969-40 40v256c.0273438 22.082031 17.917969 39.972656 40 40h124.902344l-10.671875 32h-26.230469c-22.082031.027344-39.972656 17.917969-40 40v24h304v-24c-.027344-22.082031-17.917969-39.972656-40-40h-26.230469l-10.671875-32h124.902344c22.082031-.027344 39.972656-17.917969 40-40v-256c-.027344-22.082031-17.917969-39.972656-40-40zm-368 16h336v200c0 4.417969-3.582031 8-8 8h-320c-4.417969 0-8-3.582031-8-8zm0-40c0-4.417969 3.582031-8 8-8h320c4.417969 0 8 3.582031 8 8v24h-336zm-32 40h16v200c0 13.253906 10.746094 24 24 24h320c13.253906 0 24-10.746094 24-24v-200h16c13.253906 0 24 10.746094 24 24v215.695312h-448v-215.695312c0-13.253906 10.746094-24 24-24zm312 368c13.253906 0 24 10.746094 24 24v8h-272v-8c0-13.253906 10.746094-24 24-24zm-43.097656-16h-137.804688l10.671875-32h116.460938zm131.097656-48h-400c-13.253906 0-24-10.746094-24-24v-24.304688h448v24.304688c0 13.253906-10.746094 24-24 24zm0 0"/><path d="m200 336h16v16h-16zm0 0"/><path d="m232 336h16v16h-16zm0 0"/><path d="m264 336h16v16h-16zm0 0"/><path d="m88 24h16v16h-16zm0 0"/><path d="m112 24h16v16h-16zm0 0"/><path d="m136 24h16v16h-16zm0 0"/><path d="m398.238281 150.398438c-7.023437-34.582032-34.054687-61.613282-68.636719-68.636719l-9.601562-1.953125v80.191406h80.191406zm-62.238281-6.398438v-43.902344c20.523438 7.234375 36.667969 23.378906 43.902344 43.902344zm0 0"/><path d="m312 256c45.257812.164062 83.199219-34.152344 87.558594-79.199219l.875-8.800781h-88.433594v-88.433594l-8.800781.875c-46.65625 4.683594-81.449219 45.128906-79.101563 91.964844 2.347656 46.832031 41.007813 83.601562 87.902344 83.59375zm-16-158.222656v86.222656h86.222656c-7.929687 34.722656-40.058594 58.429688-75.574218 55.765625-35.519532-2.660156-63.753907-30.894531-66.414063-66.414063-2.664063-35.515624 21.042969-67.644531 55.765625-75.574218zm0 0"/><path d="m120 184h-40v72h40zm-16 56h-8v-40h8zm0 0"/><path d="m168 152h-40v104h40zm-16 88h-8v-72h8zm0 0"/><path d="m216 96h-40v160h40zm-16 144h-8v-128h8zm0 0"/></svg>