<svg height="511pt" viewBox="1 -51 511.999 511" width="511pt" xmlns="http://www.w3.org/2000/svg"><path d="m351.667969 371.996094h130.398437c11.007813 0 19.933594-8.921875 19.933594-19.929688v-272.632812c0-11.011719-8.925781-19.933594-19.933594-19.933594h-452.132812c-11.007813 0-19.933594 8.921875-19.933594 19.933594v272.628906c0 11.011719 8.925781 19.933594 19.933594 19.933594h128.730468" fill="#60a4ff"/><path d="m426.164062 229.664062c0 93.976563-76.1875 170.160157-170.164062 170.160157s-170.164062-76.183594-170.164062-170.160157c0-93.980468 76.1875-170.164062 170.164062-170.164062s170.164062 76.183594 170.164062 170.164062zm0 0" fill="#b0e7f8"/><path d="m371.628906 229.664062c0 63.859376-51.769531 115.625-115.628906 115.625s-115.628906-51.765624-115.628906-115.625c0-63.859374 51.769531-115.628906 115.628906-115.628906s115.628906 51.769532 115.628906 115.628906zm0 0" fill="#eff3f3"/><path d="m406.117188 59.5h-300.234376l30.019532-49h240.195312zm0 0" fill="#f6838d"/><path d="m482.066406 49.5h-70.347656l-27.09375-44.222656c-1.816406-2.96875-5.046875-4.777344-8.527344-4.777344h-240.195312c-3.480469 0-6.707032 1.808594-8.527344 4.777344l-27.09375 44.222656h-70.347656c-16.503906 0-29.933594 13.425781-29.933594 29.933594v272.632812c0 16.503906 13.429688 29.933594 29.933594 29.933594h128.730468c.382813 0 .761719-.023438 1.132813-.066406 27.851563 17.660156 60.855469 27.894531 96.203125 27.894531 35.304688 0 68.269531-10.210937 96.101562-27.828125h129.964844c16.503906 0 29.933594-13.429688 29.933594-29.933594v-272.632812c0-16.507813-13.429688-29.933594-29.933594-29.933594zm-340.5625-29h228.992188l17.765625 29h-264.523438zm-111.570312 341.496094c-5.476563 0-9.933594-4.453125-9.933594-9.933594v-272.628906c0-5.476563 4.457031-9.933594 9.933594-9.933594h143.613281c-57.984375 29.972656-97.710937 90.515625-97.710937 160.164062 0 52.257813 22.367187 99.394532 58.03125 132.332032zm462.066406-9.933594c0 5.480469-4.457031 9.933594-9.933594 9.933594h-103.933594c35.664063-32.9375 58.03125-80.074219 58.03125-132.332032 0-26.804687-5.75-52.605468-17.085937-76.675781-2.351563-4.996093-8.308594-7.140625-13.308594-4.785156-4.996093 2.351563-7.136719 8.308594-4.785156 13.304687 10.070313 21.390626 15.179687 44.320313 15.179687 68.15625 0 88.3125-71.851562 160.160157-160.164062 160.160157s-160.164062-71.847657-160.164062-160.160157c0-88.316406 71.851562-160.164062 160.164062-160.164062 29.929688 0 59.117188 8.304688 84.410156 24.019531.269532.167969 1.371094.875 2.265625 1.449219l1.28125.816406c4.664063 2.953125 10.84375 1.566406 13.796875-3.101562 2.953125-4.667969 1.5625-10.84375-3.105468-13.796875l-1.183594-.757813c-1.011719-.648437-2.265625-1.449218-2.503906-1.601562-4.042969-2.511719-8.175782-4.855469-12.386719-7.027344h143.492187c5.476563 0 9.933594 4.453125 9.933594 9.929688zm0 0"/><path d="m256 355.289062c-69.269531 0-125.628906-56.355468-125.628906-125.625 0-69.273437 56.359375-125.628906 125.628906-125.628906s125.628906 56.355469 125.628906 125.628906c0 69.269532-56.355468 125.625-125.628906 125.625zm0-231.253906c-58.242188 0-105.628906 47.382813-105.628906 105.628906 0 58.242188 47.386718 105.625 105.628906 105.625s105.628906-47.382812 105.628906-105.625c0-58.246093-47.386718-105.628906-105.628906-105.628906zm0 0"/><path d="m384.171875 127.730469c-4.195313 0-7.984375-2.707031-9.40625-6.632813-1.40625-3.867187-.191406-8.328125 2.9375-10.988281 3.269531-2.78125 8.09375-3.140625 11.742187-.871094 3.5 2.175781 5.324219 6.40625 4.523438 10.441407-.914062 4.617187-5.09375 8.050781-9.796875 8.050781zm0 0"/></svg>