<svg id="Layer_5" enable-background="new 0 0 64 64" height="512" viewBox="0 0 64 64" width="512" xmlns="http://www.w3.org/2000/svg"><g><g><g><path d="m60 2h-26v60h26c1.1 0 2-.9 2-2v-56c0-1.1-.9-2-2-2z" fill="#cf9e76"/></g><g><path d="m28 34.32c-.39-.11-.77-.24-1.13-.41l.7-.87c1.57-1.97 2.43-4.41 2.43-6.94 0-1.34-.24-2.62-.67-3.82-.44-1.18-1.07-2.28-1.87-3.24v-.04h1.54c.55 0 1-.45 1-1v-2c0-.55-.45-1-1-1h-1l-.26-1.19c-1.02-4.56-5.07-7.81-9.74-7.81-2.34 0-4.52.81-6.24 2.2-1.72 1.38-2.99 3.33-3.5 5.61l-.26 1.19h-1c-.55 0-1 .45-1 1v2c0 .55.45 1 1 1h1.26c-.77 1.47-1.59 3.29-1.99 5-.17.7-.27 1.38-.27 2 0 .55.22 1.05.59 1.41.36.37.86.59 1.41.59v3 .27c0 2.06 1.67 3.73 3.73 3.73.18 0 .36-.01.53-.04l3.45-.49 5.02 3.62-4.54 1.66c-1.85.67-3.4 1.89-4.49 3.44-1.08 1.55-1.7 3.42-1.7 5.4 0 5.2 4.21 9.41 9.41 9.41h14.59v4h-30c-1.1 0-2-.9-2-2v-56c0-1.1.9-2 2-2h30v33l-4.93-.49c-.37-.04-.73-.1-1.07-.19z" fill="#ecc19c"/></g><g><path d="m34 52h4v6h-4-14.59c-5.2 0-9.41-4.21-9.41-9.41 0-1.98.62-3.85 1.7-5.4 1.09-1.55 2.64-2.77 4.49-3.44l4.54-1.66.08.06c.77.55 1.7.85 2.65.85 1.26 0 2.39-.51 3.21-1.33s1.33-1.95 1.33-3.21v-.14c.34.09.7.15 1.07.19l4.93.49z" fill="#b4dd7f"/></g><g><path d="m18 6s-4 4-4 9h-6l.26-1.19c.51-2.28 1.78-4.23 3.5-5.61 1.72-1.39 3.9-2.2 6.24-2.2z" fill="#ccd1d9"/></g><g><path d="m27.74 13.81.26 1.19h-6c0-5-4-9-4-9 4.67 0 8.72 3.25 9.74 7.81z" fill="#ccd1d9"/></g><g><path d="m30 16v2c0 .55-.45 1-1 1h-1.54-5.46-13.74-1.26c-.55 0-1-.45-1-1v-2c0-.55.45-1 1-1h1 6 8 6 1c.55 0 1 .45 1 1z" fill="#fc6e51"/></g><g><path d="m18 6s4 4 4 9h-8c0-5 4-9 4-9z" fill="#ff826e"/></g><g><path d="m22 19h5.46v.04c.8.96 1.43 2.06 1.87 3.24.43 1.2.67 2.48.67 3.82 0 2.53-.86 4.97-2.43 6.94l-.7.87c-.64-.3-1.22-.69-1.74-1.15-1.07-.97-1.83-2.28-2.13-3.76l1.55-1.03c.91-.61 1.45-1.62 1.45-2.71 0-1.8-1.46-3.26-3.26-3.26h-.74v-2z" fill="#656d78"/></g><g><path d="m46 54v2c0 1.1-.9 2-2 2h-6v-6l1.41-1.41c.38-.38.89-.59 1.42-.59h.17c1.1 0 2 .9 2 2h1c1.1 0 2 .9 2 2z" fill="#f0d0b4"/></g><g><path d="m20.73 38.09-5.02-3.62-3.45.49c-.17.03-.35.04-.53.04-2.06 0-3.73-1.67-3.73-3.73v-.27-3c-.55 0-1.05-.22-1.41-.59-.37-.36-.59-.86-.59-1.41 0-.62.1-1.3.27-2 5.69-.02 12.01-.28 15.73-4v2h.74c1.8 0 3.26 1.46 3.26 3.26 0 1.09-.54 2.1-1.45 2.71l-1.55 1.03c.3 1.48 1.06 2.79 2.13 3.76.52.46 1.1.85 1.74 1.15.36.17.74.3 1.13.41v.14c0 1.26-.51 2.39-1.33 3.21s-1.95 1.33-3.21 1.33c-.95 0-1.88-.3-2.65-.85z" fill="#f0d0b4"/></g><g><path d="m8.26 19h13.74v1c-3.72 3.72-10.04 3.98-15.73 4 .4-1.71 1.22-3.53 1.99-5z" fill="#e6e9ed"/></g><g><path d="m42 31v6c0 1.66-1.34 3-3 3-.55 0-1-.45-1-1v-10c0-.55.45-1 1-1 .83 0 1.58.34 2.12.88s.88 1.29.88 2.12z" fill="#aab2bd"/></g><g><path d="m38 6h20v10h-20z" fill="#69d6f4"/></g></g><g><circle cx="12" cy="21" r="1"/><path d="m60 1h-56c-1.654 0-3 1.346-3 3v56c0 1.654 1.346 3 3 3h56c1.654 0 3-1.346 3-3v-56c0-1.654-1.346-3-3-3zm-38.528 50c-2.377 0-4.515-1.321-5.578-3.447l-1.789.895c1.404 2.807 4.227 4.552 7.367 4.552h15.528v4h-17.591c-4.637 0-8.409-3.772-8.409-8.409 0-3.523 2.225-6.699 5.536-7.903l4.092-1.488c.858.515 1.824.8 2.835.8 2.702 0 4.955-1.947 5.438-4.511.025.003.048.011.073.013l4.026.403v15.095zm22.528 2c.551 0 1 .449 1 1v2c0 .551-.449 1-1 1h-5v-4.586l1.121-1.121c.189-.189.441-.293.708-.293h.171c.551 0 1 .449 1 1v1zm-25.142-19.99-6.737.962c-1.367.197-2.638-.704-3.005-1.972h1.884c2.206 0 4-1.794 4-4h-2c0 1.103-.897 2-2 2h-2v-3h-1c-.551 0-1-.449-1-1 0-.308.036-.65.092-1.007 5.073-.046 10.189-.413 13.908-2.896v.903h1.743c1.245 0 2.257 1.012 2.257 2.257 0 .756-.375 1.458-1.005 1.878l-2.107 1.405.131.657c.545 2.723 2.433 4.862 4.926 5.807-.262 1.692-1.717 2.996-3.482 2.996-.746 0-1.461-.23-2.066-.666l-3.091-2.225.837-.12zm4.094-19.01c-.259-2.758-1.534-5.127-2.622-6.698 3.17.839 5.67 3.359 6.422 6.698zm-2.017 0h-5.871c.331-2.846 1.971-5.269 2.935-6.475.965 1.206 2.605 3.629 2.936 6.475zm-7.887 0h-3.8c.752-3.339 3.252-5.859 6.422-6.698-1.088 1.571-2.363 3.94-2.622 6.698zm15.952 2 .001 2h-22.001v-2zm0 10.104c0 2.286-.787 4.527-2.215 6.313l-.171.213c-1.156-.727-2.044-1.841-2.471-3.191l.96-.641c1.189-.791 1.897-2.115 1.897-3.541 0-2.261-1.772-4.116-4-4.249v-1.008h3.936c1.329 1.749 2.064 3.898 2.064 6.104zm-20.126-6.104h3.126 8.484c-3.176 2.49-8.006 2.92-12.881 2.987.307-.91.735-1.912 1.271-2.987zm-5.874 40v-56c0-.551.449-1 1-1h29v30.895l-3.827-.383c-.216-.022-.424-.067-.633-.11 1.584-2.094 2.46-4.669 2.46-7.298 0-2.166-.591-4.287-1.679-6.137.95-.154 1.679-.974 1.679-1.967v-2c0-1.103-.897-2-2-2h-.198l-.091-.407c-1.124-5.059-5.528-8.593-10.711-8.593s-9.587 3.534-10.711 8.593l-.091.407h-.198c-1.103 0-2 .897-2 2v2c0 .99.725 1.808 1.671 1.967-1.105 2.387-1.671 4.415-1.671 6.033 0 1.304.836 2.416 2 2.829v2.437c0 2.61 2.124 4.734 4.734 4.734.224 0 .448-.016.67-.048l3.044-.435 3.173 2.283-2.77 1.007c-4.098 1.491-6.851 5.423-6.851 9.784 0 5.74 4.669 10.409 10.409 10.409h13.591v2h-29c-.551 0-1-.449-1-1zm58 0c0 .551-.449 1-1 1h-25v-2h9c1.654 0 3-1.346 3-3v-2c0-1.654-1.346-3-3-3h-.171c-.413-1.164-1.525-2-2.829-2h-.171c-.801 0-1.555.312-2.122.879l-1.121 1.121h-2.586v-48h25c.551 0 1 .449 1 1z"/><path d="m39 27c-1.103 0-2 .897-2 2v10c0 1.103.897 2 2 2 2.206 0 4-1.794 4-4v-6c0-2.206-1.794-4-4-4zm2 10c0 1.103-.897 2-2 2v-10c1.103 0 2 .897 2 2z"/><path d="m37 17h22v-12h-22zm2-10h18v8h-18z"/></g></g></svg>